<svg width="238" height="53" viewBox="0 0 238 53" fill="none" xmlns="http://www.w3.org/2000/svg">
<g filter="url(#filter0_d_193_2689)">
<path d="M52.5351 29.8337C52.1445 33.2185 50.9512 36.1042 48.955 38.4909C46.9589 40.8776 44.2467 42.7002 40.8186 43.9586C37.3904 45.2171 33.3113 45.8463 28.5813 45.8463C24.6324 45.8463 21.009 45.3906 17.711 44.4794C14.4564 43.5681 11.6358 42.2011 9.24907 40.3786C6.90577 38.556 5.0832 36.2995 3.78136 33.609C2.47953 30.8752 1.82861 27.6857 1.82861 24.0406C1.82861 20.3954 2.47953 17.2059 3.78136 14.4721C5.0832 11.7382 6.90577 9.46001 9.24907 7.63744C11.6358 5.77148 14.4564 4.38285 17.711 3.47157C21.009 2.51689 24.6324 2.03955 28.5813 2.03955C33.3113 2.03955 37.3904 2.69047 40.8186 3.9923C44.2901 5.29414 47.024 7.1601 49.0201 9.59019C51.0163 11.9769 52.1879 14.8843 52.5351 18.3125H43.943C43.3788 16.4899 42.4242 14.9277 41.0789 13.6259C39.7771 12.2806 38.0847 11.2609 36.0018 10.5666C33.9188 9.87225 31.4453 9.5251 28.5813 9.5251C25.023 9.5251 21.8986 10.0892 19.2081 11.2175C16.5176 12.3023 14.4347 13.9296 12.9593 16.0994C11.4839 18.2257 10.7462 20.8728 10.7462 24.0406C10.7462 27.165 11.4839 29.7903 12.9593 31.9167C14.4347 34.043 16.5176 35.6703 19.2081 36.7985C21.8986 37.8834 25.023 38.4258 28.5813 38.4258C31.4453 38.4258 33.8971 38.0787 35.9367 37.3844C38.0196 36.69 39.712 35.692 41.0138 34.3901C42.3591 33.0883 43.3354 31.5695 43.943 29.8337H52.5351Z" fill="white"/>
<path d="M67.0978 37.5796V45.0001H57.269V37.5796H67.0978Z" fill="white"/>
<path d="M114.343 2.88574L95.8567 31.7214V45.0001H87.1344V31.7214L68.6483 2.88574H78.6724L91.6037 23.8247L104.319 2.88574H114.343Z" fill="white"/>
<path d="M129.264 27.4253V37.7749H161.745V45.0001H120.607V2.88574H161.68V10.1109H129.264V20.5907H155.821V27.4253H129.264Z" fill="white"/>
<path d="M214.883 18.5907L209.812 3.97187L204.74 18.5907L191.035 24.0001L204.74 29.4095L209.812 44.0283L214.883 29.4095L228.588 24.0001L214.883 18.5907Z" fill="white"/>
<path d="M53.1568 29.9055L53.2373 29.2078H52.5351H43.943H43.4989L43.3522 29.627C42.7775 31.269 41.8551 32.7051 40.5786 33.9404L40.5785 33.9403L40.5713 33.9476C39.3502 35.1687 37.7471 36.1211 35.7388 36.7906L35.735 36.7919C33.7778 37.4581 31.3979 37.7999 28.5813 37.7999C25.0874 37.7999 22.0467 37.2675 19.4463 36.2197C16.8532 35.1316 14.872 33.5753 13.4735 31.5598C12.0848 29.5584 11.3721 27.0643 11.3721 24.0406C11.3721 20.9714 12.0857 18.4562 13.4735 16.4562L13.4735 16.4562L13.4769 16.4513C14.8752 14.3949 16.8541 12.8415 19.4422 11.798L19.4422 11.798L19.4501 11.7947C22.0491 10.7048 25.0883 10.151 28.5813 10.151C31.3974 10.151 33.8008 10.4926 35.8038 11.1603C37.8078 11.8283 39.4085 12.7998 40.6292 14.0611L40.6363 14.0685L40.6437 14.0756C41.9118 15.3029 42.8114 16.7735 43.3451 18.4975L43.4815 18.9384H43.943H52.5351H53.2275L53.1578 18.2494C52.7995 14.7117 51.5859 11.6833 49.502 9.19081C47.4249 6.66293 44.594 4.73987 41.0396 3.40675C37.5234 2.0717 33.3658 1.41367 28.5813 1.41367C24.5832 1.41367 20.9012 1.89682 17.5396 2.8696C14.2168 3.80031 11.3216 5.22281 8.86419 7.14388C6.44263 9.02747 4.55906 11.3831 3.21628 14.203C1.86709 17.0363 1.20273 20.321 1.20273 24.0406C1.20273 27.7601 1.86709 31.0448 3.21627 33.8781L3.21797 33.8816C4.56141 36.6581 6.44504 38.9906 8.8648 40.8726L8.86921 40.876C11.3264 42.7524 14.2208 44.1521 17.5422 45.0821L17.5443 45.0826C20.9042 46.011 24.5845 46.4722 28.5813 46.4722C33.3643 46.4722 37.52 45.8362 41.0342 44.5462C44.5473 43.2566 47.3573 41.3768 49.4351 38.8925C51.5171 36.4031 52.7537 33.3996 53.1568 29.9055ZM67.7237 37.5796V36.9538H67.0978H57.269H56.6431V37.5796V45.0001V45.626H57.269H67.0978H67.7237V45.0001V37.5796ZM114.87 3.22353L115.487 2.25986H114.343H104.319H103.966L103.784 2.56089L91.5992 22.6262L79.205 2.55688L79.0215 2.25986H78.6724H68.6483H67.5036L68.1214 3.22353L86.5085 31.9048V45.0001V45.626H87.1344H95.8567H96.4825V45.0001V31.9048L114.87 3.22353ZM162.371 37.7749V37.149H161.745H129.89V28.0512H155.821H156.447V27.4253V20.5907V19.9648H155.821H129.89V10.7368H161.68H162.306V10.1109V2.88574V2.25986H161.68H120.607H119.981V2.88574V45.0001V45.626H120.607H161.745H162.371V45.0001V37.7749ZM210.403 3.76674L209.812 2.06221L209.22 3.76674L204.243 18.114L190.805 23.4179L189.331 24.0001L190.805 24.5823L204.243 29.8862L209.22 44.2334L209.812 45.938L210.403 44.2334L215.38 29.8862L228.818 24.5823L230.293 24.0001L228.818 23.4179L215.38 18.114L210.403 3.76674Z" stroke="black" stroke-width="1.25176"/>
</g>
<defs>
<filter id="filter0_d_193_2689" x="0.576843" y="0.152588" width="236.428" height="52.7021" filterUnits="userSpaceOnUse" color-interpolation-filters="sRGB">
<feFlood flood-opacity="0" result="BackgroundImageFix"/>
<feColorMatrix in="SourceAlpha" type="matrix" values="0 0 0 0 0 0 0 0 0 0 0 0 0 0 0 0 0 0 127 0" result="hardAlpha"/>
<feOffset dx="5.00706" dy="5.00706"/>
<feComposite in2="hardAlpha" operator="out"/>
<feColorMatrix type="matrix" values="0 0 0 0 0 0 0 0 0 0 0 0 0 0 0 0 0 0 1 0"/>
<feBlend mode="normal" in2="BackgroundImageFix" result="effect1_dropShadow_193_2689"/>
<feBlend mode="normal" in="SourceGraphic" in2="effect1_dropShadow_193_2689" result="shape"/>
</filter>
</defs>
</svg>
